<?xml version="1.0" encoding="utf-8"?>
<!-- Generator: Adobe Illustrator 24.1.1, SVG Export Plug-In . SVG Version: 6.00 Build 0)  -->
<svg version="1.1" id="Layer_1" xmlns="http://www.w3.org/2000/svg" xmlns:xlink="http://www.w3.org/1999/xlink" x="0px" y="0px"
	 viewBox="0 0 800 800" style="enable-background:new 0 0 800 800;" xml:space="preserve">
<style type="text/css">
	.st0{fill:#FFFFFF;}
</style>
<rect width="800" height="800"/>
<g>
	<g>
		<path class="st0" d="M492.1,480.77c-1.43,17.66-2.84,34.88-4.24,52.04c-1.77,1.22-3.68,1.06-5.51,1.09
			c-1.1,0.02-2.21,0.04-3.32,0.06H379.7c-0.18-0.08-0.36-0.17-0.54-0.28c0.6-1.66,2.05-1.38,3.12-1.64
			c9.16-2.25,10.63-4.06,10.81-13.57c0.04-2.11,0.09-4.22,0.04-6.33c-0.02-1.35,0.33-2.39,1.13-3.22
			c5.38-2.55,11.01-7.05,11.01-7.05v-5.06c-0.32,0.47-1.1,1.11-2.15,1.83c-1.29,0.95-4.58,2.76-6.5,3.89
			c-0.07,0.04-0.13,0.08-0.2,0.11c-1.89,1.13-3.81,2.13-5.73,3.03c0,0-0.01,0.01-0.02,0.01c-17.29,8.08-35.48,7.58-54.41,0.1
			c-4.05-1.6-7.9-3.62-11.76-5.64c-0.98-0.52-1.98-1.04-3.01-1.48c-5.19-2.18-7.61-0.92-8.93,4.55c-0.44,1.83-0.11,3.98-1.74,5.39
			c-0.13-0.04-0.24-0.1-0.34-0.15v-55.79c0.15-0.16,0.37-0.31,0.69-0.4c1.28,1.17,1.08,2.86,1.28,4.37
			c1.22,9.54,3.06,18.89,7.88,27.4c10.01,17.7,25.25,25.79,45.42,24.41c13-0.89,22.96-8.72,26.32-21.25
			c4.62-17.27,0.01-28.76-12.21-37.56c-2.52-1.81-5.13-3.5-7.79-5.12c-9.48-5.74-19.66-10.08-29.67-14.77
			c-6.32-2.97-12.34-6.41-17.84-10.74c-10.33-8.14-15.65-18.77-15.66-31.93c-0.01-16.82,6.6-30.4,20.35-40.2
			c7.55-5.38,16.38-6.93,25.46-7.17c7.92-0.22,15.57,1.3,23.1,3.6c3.32,1.02,6.62,2.15,9.99,2.98c6.17,1.54,9.4-0.34,11.44-6.32
			c0.31-0.92,0.2-2.01,1.01-2.74c0.04-0.03,0.09-0.04,0.19-0.07v46.91c-1.95-0.77-2.01-2.19-2.36-3.3
			c-1.69-5.34-3.39-10.66-5.65-15.79c-6.62-15-18.32-22.33-34.53-22.75c-3.86-0.1-7.7,0.29-11.48,1.07
			c-11.19,2.3-18.64,10.75-19.87,22.16c-1.15,10.63,2.23,19.24,10.49,26.07c4.93,4.07,10.29,7.41,16.05,10.08
			c12.39,5.77,25,11.04,37.06,17.51c0.96,0.52,1.95,1.13,3.15,0.86c1.2-0.72,0.98-1.94,1-3.01c0.1-6.34,0.2-12.68,0.19-19.01
			c-0.01-3.6-0.83-4.52-4.26-5.57c-2.06-0.64-4.38-0.53-6.27-1.81c0.07-0.17,0.15-0.32,0.24-0.45h47.86
			c-0.75,1.44-2.22,1.31-3.48,1.54c-1.34,0.25-2.74,0.25-4.06,0.56c-3.24,0.75-4.93,2.57-5.34,5.88c-0.24,1.97-0.28,3.97-0.26,5.96
			c0.42,38.9-0.26,77.79-0.34,116.69c-0.01,1.74-0.04,3.48,0.07,5.22c0.19,2.96,0.84,3.76,3.74,4.09c2.96,0.34,5.95,0.48,8.93,0.57
			c6.09,0.16,12.19-0.04,18.25-0.58c15.95-1.43,27.09-9.41,33.27-24.3c2.87-6.91,5.01-14.03,7.14-21.17
			C490.4,483.32,490.6,481.98,492.1,480.77z"/>
		<path class="st0" d="M502.26,592.73c-67.69,0.02-135.39,0.07-203.08,0.11c-1.79,0-3.23,1.45-3.23,3.24v0.02
			c0,1.79,1.45,3.23,3.23,3.24c18.48,0.02,36.97,0.02,55.45,0.04c36.15,0.03,72.29,0.09,108.44,0.07
			c13.07-0.01,26.15-0.11,39.22-0.24c1.77-0.02,3.2-1.46,3.2-3.24l0,0C505.49,594.18,504.04,592.73,502.26,592.73z"/>
		<g>
			<path class="st0" d="M439.94,259.75c0.01-3.86,0.05-7.52,0.12-10.35h-79.38c0.11,3.02,0.19,6.64,0.24,10.35H439.94z"/>
			<path class="st0" d="M363.17,273.66h-5.83c-0.01,5.26-0.07,17.98-0.11,23.24c0,0.37-0.02,0.75-0.06,1.12
				c-0.49,5.24-2.56,7.32-7.76,7.67c-1.86,0.12-3.73,0.03-5.59,0.03c-19.88,0-39.77-0.25-59.65-0.03
				c-7.24,0.08-11.37,2.1-14.06,3.61l1.57,4.83c5.12-1.94,10.83-2.86,17.25-2.62c18.37,0.7,36.78,0.23,55.17,0.25
				c3.35,0,6.73,0.04,10.01-0.78c4.8-1.2,7.85-4.05,8.54-9.14c0.32-2.35,0.54-4.69,0.53-7.05
				C363.16,290.24,363.14,278.22,363.17,273.66z"/>
			<path class="st0" d="M567.1,461.81c-0.88-0.82-2.11-1.4-2.05-2.97c1.15-1.32,2.79-1.96,4.29-2.78c4.37-2.4,4.81-7.49,0.88-10.64
				c-1.9-1.52-4.2-2.06-6.5-2.66c-1.86-0.48-3.96-0.48-5.41-2.02c-0.08-1.61,0.78-2.73,1.39-3.93c2.67-5.21,5-10.58,6.63-16.19
				c5.31-18.19,6.28-36.62,2.99-55.32c-2.66-15.17-8.6-28.8-18.78-40.36c-10.63-12.06-23.38-19.5-40.27-19.07
				c-18.13,0.47-36.28-0.04-54.43-0.16c-2.36-0.02-4.74-0.03-7.06-0.41c-6.06-0.99-7.63-2.73-7.92-8.84
				c-0.24-5.11-0.21-17.69-0.05-22.81h-5.44c-0.04,5.53-0.22,18.53-0.07,24.05c0.22,8.38,4.63,12.99,13.05,13.81
				c3.09,0.3,6.2,0.39,9.31,0.39c18.14-0.01,36.29,0.09,54.43-0.17c10.69-0.15,19.62,3.54,27.3,10.78
				c11.18,10.52,18.39,23.34,22.17,38.13c3.75,14.67,3.82,29.51,1.87,44.42c-1.78,13.6-5.92,26.39-13.26,38.06
				c-0.45,0.72-1,1.43-0.62,2.54c1.09,0.83,2.52,0.56,3.84,0.74c3.94,0.53,7.93,0.99,11.31,3.34c2.03,1.41,2.59,3.37,1.75,5.16
				c-0.85,1.82-2.41,2.27-5.12,1.45c-2.73-0.82-5.43-1.84-8.21-2.45c-3.02-0.66-6.09-1.31-9.41-0.76
				c8.48,5.72,10.84,14.17,10.72,23.98c2.01-0.85,2.67-1.99,3.01-3.32c0.47-1.83,0.23-3.7,0.16-5.57c-0.06-1.58-0.44-3.26,0.96-4.64
				c2.39-0.87,3.95,0.61,5.43,2.15c1.85,1.94,2.73,4.41,3.59,6.88c0.48,1.37,0.58,2.97,2.19,3.85c2.19-0.12,2.41-1.71,2.32-3.4
				C571.88,468.71,570.37,464.86,567.1,461.81z"/>
			<path class="st0" d="M559.42,525.99c4.14-1.43,8.54-9.06,10.11-17.15c1.65-8.54-0.33-15.88-6.72-21.98
				c-0.45,0.31-0.88,0.45-1.02,0.74c-1.97,4.25-5.1,7.56-8.48,10.72c-1.05,0.98-2.1,2.18-1.52,3.85c0.23,0.22,0.38,0.45,0.59,0.54
				c0.45,0.2,0.92,0.4,1.4,0.46c4.34,0.58,5.95,3.49,6.5,7.42c0.54,3.86,0.18,7.66-0.51,11.46
				C559.54,523.34,558.81,524.61,559.42,525.99z"/>
			<path class="st0" d="M539.22,474.03c0.07,2.01,1.81,3.5,4.03,3.47c2.02-0.03,3.3-1.47,3.27-3.67c-0.03-2.38-1.43-3.77-3.67-3.66
				C540.68,470.28,539.15,471.91,539.22,474.03z"/>
		</g>
		<g>
			<path class="st0" d="M294.25,305.97c-1.59-0.03-3.19-0.05-4.78-0.09c-16.89-0.44-29.64,7.01-40.27,19.07
				c-10.19,11.56-16.12,25.18-18.78,40.36c-3.28,18.7-2.31,37.13,2.99,55.32c1.64,5.61,3.96,10.98,6.63,16.19
				c0.61,1.2,1.47,2.32,1.39,3.93c-1.45,1.54-3.54,1.54-5.41,2.02c-2.3,0.59-4.59,1.13-6.5,2.66c-3.92,3.15-3.49,8.24,0.88,10.64
				c1.51,0.83,3.15,1.47,4.29,2.78c0.06,1.57-1.17,2.15-2.05,2.97c-3.27,3.05-4.78,6.9-5.02,11.28c-0.09,1.69,0.13,3.29,2.32,3.4
				c1.61-0.87,1.72-2.47,2.19-3.85c0.86-2.48,1.74-4.95,3.59-6.88c1.48-1.54,3.03-3.02,5.43-2.15c1.4,1.38,1.02,3.05,0.96,4.64
				c-0.07,1.86-0.31,3.73,0.16,5.57c0.34,1.33,1,2.47,3.01,3.32c-0.12-9.81,2.23-18.26,10.72-23.98c-3.32-0.54-6.39,0.11-9.41,0.76
				c-2.78,0.6-5.47,1.62-8.21,2.45c-2.71,0.82-4.27,0.37-5.12-1.45c-0.84-1.79-0.28-3.75,1.75-5.16c3.38-2.35,7.37-2.81,11.31-3.34
				c1.32-0.18,2.74,0.1,3.84-0.74c0.39-1.11-0.17-1.82-0.62-2.54c-7.33-11.67-11.47-24.46-13.26-38.06
				c-1.95-14.91-1.89-29.75,1.87-44.42c3.78-14.79,10.99-27.61,22.17-38.13c7.69-7.24,16.61-10.93,27.3-10.78
				c2.2,0.03,4.4,0.04,6.6,0.07V305.97z"/>
			<path class="st0" d="M240.34,525.99c-4.14-1.43-8.54-9.06-10.11-17.15c-1.65-8.54,0.33-15.88,6.72-21.98
				c0.45,0.31,0.88,0.45,1.02,0.74c1.97,4.25,5.1,7.56,8.48,10.72c1.05,0.98,2.1,2.18,1.52,3.85c-0.23,0.22-0.38,0.45-0.59,0.54
				c-0.45,0.2-0.92,0.4-1.4,0.46c-4.34,0.58-5.95,3.49-6.5,7.42c-0.54,3.86-0.18,7.66,0.51,11.46
				C240.21,523.34,240.95,524.61,240.34,525.99z"/>
			<path class="st0" d="M260.54,474.03c-0.07,2.01-1.81,3.5-4.03,3.47c-2.02-0.03-3.3-1.47-3.27-3.67c0.03-2.38,1.43-3.77,3.67-3.66
				C259.08,470.28,260.61,471.91,260.54,474.03z"/>
		</g>
		<rect x="350.84" y="266.85" class="st0" width="97.7" height="8.95"/>
		<path class="st0" d="M396.42,502.65c-1.89,1.13-3.81,2.13-5.73,3.03C390.7,505.67,393.36,504.33,396.42,502.65z"/>
		<g>
			<path class="st0" d="M320.93,192.48v54.71h44.89v-7.46h-37.44v-39.8h143.19v39.8h-36.73v7.46h44.18v-54.71H320.93z"/>
		</g>
		<rect x="434.86" y="239.74" class="st0" width="5.29" height="29.24"/>
		<rect x="360.54" y="239.74" class="st0" width="5.29" height="29.24"/>
	</g>
	<g>
		<path class="st0" d="M575.58,607.44c-27.66,0-50.16-22.5-50.16-50.16V349.66c0-1.52,1.23-2.75,2.75-2.75s2.75,1.23,2.75,2.75
			v207.63c0,24.62,20.03,44.66,44.66,44.66c1.52,0,2.75,1.23,2.75,2.75S577.09,607.44,575.58,607.44z"/>
	</g>
	<g>
		<path class="st0" d="M224.42,607.44c27.66,0,50.16-22.5,50.16-50.16V349.66c0-1.52-1.23-2.75-2.75-2.75s-2.75,1.23-2.75,2.75
			v207.63c0,24.62-20.03,44.66-44.66,44.66c-1.52,0-2.75,1.23-2.75,2.75S222.91,607.44,224.42,607.44z"/>
	</g>
</g>
</svg>
